<?xml version="1.0" encoding="utf-8"?>
<!-- Generator: Adobe Illustrator 25.2.1, SVG Export Plug-In . SVG Version: 6.00 Build 0)  -->
<svg version="1.1" id="Capa_1" xmlns="http://www.w3.org/2000/svg" xmlns:xlink="http://www.w3.org/1999/xlink" x="0px" y="0px"
	 viewBox="0 0 666.1 237.2" style="enable-background:new 0 0 666.1 237.2;" xml:space="preserve">
<style type="text/css">
	.st0{fill:#181818;}
</style>
<path class="st0" d="M91.2,64.7c6.2,0.7,12.2,2.2,18,4.4c13.9,5.6,21.7,15.7,23.4,30.6c0.9,8.3,0.4,16.4-2.3,24.3
	c-3.7,10.6-11.3,17.4-21.6,21.4c-7.4,2.8-15.2,4.4-23.2,4.6c-10.3,0.4-20.7,0.3-31,0.4c-17.5,0-34.9,0-52.4,0H0
	c5.2-3.1,5.9-7.9,6.3-12.8c0.1-1.4,0.1-2.8,0.1-4.2c0-38.3,0-76.6,0-114.9C6.3,15.2,6,12,5.4,8.7C4.9,5.6,3,2.9,0.2,1.4
	C0.6,1.4,1,1.3,1.3,1.3c26.3,0,52.6,0,78.9,0.1c7.9-0.1,15.8,1,23.4,3.1c5.9,1.7,11.3,4.2,15.6,8.8c4,4.3,6.4,9.9,6.9,15.7
	c0.6,5.1,0.2,10.4-1.3,15.3c-2.4,7.7-7.7,12.8-15,15.9c-5.5,2.2-11.2,3.5-17.1,4l-1.2,0.2C91.5,64.4,91.4,64.5,91.2,64.7z
	 M17.3,66.7V146c0.3,0,0.5,0.1,0.7,0.1c19.8,0,39.7,0,59.5-0.1c6.6,0,13.2-0.9,19.6-2.7c11.8-3.5,19.8-10.9,23.2-22.9
	c1.5-5.8,2.1-11.8,1.7-17.8c-0.6-15.9-9.3-27.5-24.4-32.4c-7.9-2.4-16.1-3.6-24.4-3.4L17.3,66.7L17.3,66.7z M17.3,5.6v56.9
	c0.5,0,0.9,0.1,1.3,0.1c18.4,0,36.8,0,55.2,0c7.7,0,15.3-0.2,22.7-2.3c6-1.7,11.2-4.4,14.8-9.7c3.1-4.6,4.1-9.9,4.4-15.3
	c0.2-5.1-0.3-10-2.8-14.6c-3.5-6.7-9.5-10.1-16.4-12.2c-7.7-2.3-15.6-2.8-23.6-2.8c-18,0-36,0-53.9,0L17.3,5.6z"/>
<path class="st0" d="M524.6,150.4c5.2-3.1,5.9-7.9,6.3-12.8c0.1-1.3,0.1-2.7,0.1-4c0-38.4,0-76.8,0-115.2c-0.1-3.2-0.4-6.5-1-9.7
	c-0.5-3.1-2.4-5.8-5.2-7.3c0.7-0.1,1-0.1,1.3-0.1c23.8,0,47.6-0.1,71.5,0.1c11.3,0.1,22.4,1.9,32.9,6.4c15.1,6.6,25,17.9,30.4,33.3
	c4.7,13.3,5.6,27,5.1,40.9c-0.3,8-1.4,15.9-3.5,23.5c-6.4,22.8-21.2,37-44.3,42.4c-7.5,1.7-15.2,2.5-22.9,2.5L524.6,150.4
	L524.6,150.4z M541.8,5.6v140.6c0.6,0,1,0.1,1.5,0.1c16.8,0,33.7,0,50.5,0c5.9,0.1,11.9-0.5,17.7-1.7c12.5-2.7,23-8.6,30.5-19
	c5.5-7.6,8.6-16.3,10.4-25.4c2.3-11.8,2.1-23.8,1.7-35.8c-0.3-8-1.7-15.8-4.2-23.4c-5.1-14.9-14.6-25.5-29.6-31
	C611.9,6.7,603,5.6,594,5.6c-16.9,0-33.8,0-50.7,0L541.8,5.6z"/>
<path class="st0" d="M238.5,0c11.5,0.1,22.9,1.3,33.9,4.9c22.2,7.4,35.9,22.6,41.4,45.1c3,12.3,3.5,24.8,2.3,37.4
	c-0.8,9.7-3.3,19.3-7.4,28.1c-6.8,14.1-17.7,23.8-32.1,29.6c-12,4.8-24.5,6.4-37.3,6.5c-12,0.1-23.8-1.2-35.2-5.1
	c-20.4-7-33.7-20.8-39.9-41.4c-3.9-12.9-4.5-26.2-3.5-39.6c0.5-9.1,2.6-18,6-26.4c6.6-15.6,17.9-26.4,33.6-32.6
	C212.6,1.6,225.4,0.1,238.5,0z M171.7,73.5c0,14.8,0.9,22.9,3.6,32.2c5.5,18.6,17.3,31.5,35.9,37.5c16,5.1,32.2,5.3,48.5,1.7
	c10-2,19.2-6.8,26.7-13.7c10.4-9.8,15.3-22.4,17.6-36.2c1.4-8.8,1.3-17.7,1.2-26.6c0-6.8-0.9-13.6-2.5-20.2
	c-5.3-21.1-18.3-34.9-39.3-40.7c-15.5-4.2-31.8-4.4-47.4-0.6c-22.1,5.3-36.1,18.9-41.7,41.1C172.4,56.3,171.5,64.9,171.7,73.5z"/>
<path class="st0" d="M349.1,1.3c5.4,0,10.8,0,16.3,0c0.6,0.1,1.2,0.4,1.6,0.9c16.6,20.1,33.2,40.2,49.7,60.3l61,74l0.8,0.9
	c0.1-0.3,0.2-0.7,0.2-1c0-38.5,0-77.1-0.1-115.6c0-2.3-0.3-4.6-0.8-6.9c-1.2-5.4-4-9.7-9.5-12.4h22.4c-5.6,3.8-6.4,9.5-6.8,15.4
	c-0.1,2.3-0.1,4.6-0.1,7c0,41.4,0,82.9,0,124.3v2.3c-2.6,0-5,0.1-7.4,0c-0.5,0-1.1-0.7-1.5-1.2c-9.9-12-19.9-24-29.8-36.1
	L361.4,11.8c-0.3-0.3-0.6-0.6-1.2-1.2v2c0,38.2,0,76.5,0,114.7c0,3.3,0.3,6.6,0.9,9.8c0.9,5.8,4.7,10.8,10.1,13.2h-22.5
	c5.7-3.8,6.1-9.7,6.6-15.6c0.1-1.5,0.1-3.1,0.1-4.6c0-37.1,0-74.3,0-111.4c0-2-0.1-3.9-0.3-5.9C354.7,8.1,353.1,4.1,349.1,1.3z"/>
<path class="st0" d="M7.3,237.2v-39.2H21c4.5,0,7.9,1.1,10.2,3.2c4.6,4.6,4.6,12.2,0,16.8c-2.3,2.1-5.7,3.2-10.2,3.2h-8.8v16.1
	L7.3,237.2z M12.2,217.7h8.4c2.4,0.2,4.8-0.6,6.7-2.2c3-3.2,3-8.1,0.1-11.3c-1.8-1.5-4.1-2.3-6.4-2.1h-8.8L12.2,217.7z M29.3,237.2
	l-11.3-17.8h5.3l12.2,17.8H29.3z"/>
<path class="st0" d="M58,237.2v-39.2h24.2v4.2H62.9v13.2h18.2v4.2H62.9V233h19.3v4.2H58z"/>
<path class="st0" d="M99.7,202.1v-4.2h30.6v4.2h-13.9l1.1-1.1v36.2h-4.9V201l1.1,1.1H99.7z"/>
<path class="st0" d="M142.2,237.2l13.4-39.2h5.9l13.2,39.2h-5.1l-3.4-10.1h-15.6l-3.4,10.1H142.2z M152,223.3h13.2l-6.6-19.4
	L152,223.3z"/>
<path class="st0" d="M195.3,237.2v-39.2h4.9v39.2H195.3z"/>
<path class="st0" d="M230.2,197.9v35h17.5v4.2h-22.4v-39.2H230.2z"/>
<path class="st0" d="M294.2,237.2v-39.2h12.6c3.6-0.2,7.1,0.9,9.9,3.3c4.6,5,4.6,12.6,0,17.6c-2.8,2.3-6.3,3.5-9.9,3.2h-7.7v15.1
	H294.2z M299.2,217.8h7.7c2.3,0.2,4.5-0.6,6.2-2.1c1.4-1.5,2.2-3.6,2.1-5.7c0.1-2.1-0.7-4.2-2.1-5.8c-1.7-1.5-3.9-2.3-6.2-2.2h-7.7
	V217.8z"/>
<path class="st0" d="M334.3,237.2l13.4-39.2h5.9l13.2,39.2h-5.1l-3.4-10.1h-15.6l-3.4,10.1H334.3z M344.1,223.3h13.1l-6.6-19.4
	L344.1,223.3z"/>
<path class="st0" d="M387.4,237.2v-39.2h13.7c4.5,0,7.9,1.1,10.2,3.2c4.6,4.7,4.6,12.1,0,16.8c-2.3,2.1-5.7,3.2-10.2,3.2h-8.8v16.1
	L387.4,237.2z M392.3,217.7h8.4c2.4,0.2,4.8-0.6,6.7-2.2c3-3.2,3-8.1,0.1-11.3c-1.8-1.5-4.1-2.3-6.4-2.1h-8.8L392.3,217.7z
	 M409.4,237.2l-11.3-17.8h5.3l12.3,17.8H409.4z"/>
<path class="st0" d="M432.2,202.1v-4.2h30.6v4.2h-14l1.1-1.1v36.2H445V201l1.1,1.1H432.2z"/>
<path class="st0" d="M481.9,197.9h5.9l19.9,32.3h-0.4v-32.3h4.9v39.2h-5.4l-20.6-33.4h0.8v33.4H482L481.9,197.9z"/>
<path class="st0" d="M537.1,237.2v-39.2h24.2v4.2H542v13.2h18.2v4.2H542V233h19.3v4.2H537.1z"/>
<path class="st0" d="M584.8,237.2v-39.2h13.7c4.5,0,7.9,1.1,10.2,3.2c4.6,4.7,4.6,12.1,0,16.8c-2.3,2.1-5.7,3.2-10.2,3.2h-8.8v16.1
	L584.8,237.2z M589.7,217.7h8.4c2.4,0.2,4.8-0.6,6.7-2.2c3-3.1,3.1-8.1,0.1-11.3c-1.8-1.5-4.1-2.3-6.4-2.1h-8.8L589.7,217.7z
	 M606.8,237.2l-11.3-17.8h5.3l12.2,17.8H606.8z"/>
<path class="st0" d="M648.1,237.9c-2.5,0-4.9-0.5-7.2-1.4c-2.1-0.9-3.9-2.3-5.3-4.2c-1.4-2-2.1-4.4-2.1-6.9h4.8
	c-0.1,1.6,0.4,3.2,1.3,4.5c0.9,1.2,2.2,2.1,3.6,2.6c1.5,0.6,3.2,0.9,4.8,0.9c1.7,0,3.4-0.3,4.9-0.9c1.3-0.5,2.4-1.3,3.2-2.4
	c0.7-0.9,1.1-2.1,1.1-3.3c0.1-1.5-0.5-3-1.5-4c-1.3-1.2-2.8-2-4.5-2.5l-6.9-2.4c-2.7-0.9-5.2-2.2-7.4-4c-1.7-1.6-2.6-3.9-2.5-6.3
	c-0.1-2.9,1.2-5.6,3.5-7.4c2.9-2.1,6.4-3.1,10-2.9c3.4-0.2,6.7,0.8,9.4,2.8c2.3,1.8,3.7,4.5,3.9,7.4h-4.8c-0.2-1.7-1.2-3.2-2.5-4.2
	c-1.8-1.1-3.8-1.6-5.9-1.5c-2.1-0.1-4.3,0.5-6,1.7c-1.4,1-2.2,2.6-2.2,4.3c0,1.3,0.4,2.5,1.4,3.4c1.3,1,2.7,1.8,4.3,2.3l8.1,2.8
	c2.5,0.7,4.8,2.1,6.7,3.9c1.7,1.8,2.6,4.1,2.5,6.6c0,2-0.6,4-1.7,5.7c-1.2,1.8-2.9,3.2-4.9,4C653.6,237.4,650.9,238,648.1,237.9z"/>
</svg>
